<!DOCTYPE svg PUBLIC "-//W3C//DTD SVG 1.1//EN" "http://www.w3.org/Graphics/SVG/1.1/DTD/svg11.dtd">
<!-- Uploaded to: SVG Repo, www.svgrepo.com, Transformed by: SVG Repo Mixer Tools -->
<svg width="800px" height="800px" viewBox="0 0 24 24" xmlns="http://www.w3.org/2000/svg" id="coin" class="icon glyph" fill="#000000">
<g id="SVGRepo_bgCarrier" stroke-width="0"/>
<g id="SVGRepo_tracerCarrier" stroke-linecap="round" stroke-linejoin="round"/>
<g id="SVGRepo_iconCarrier">
<path d="M12,2A10,10,0,1,0,22,12,10,10,0,0,0,12,2Zm-2,9a1,1,0,0,1,0,2H9.93A2.41,2.41,0,0,0,12,15a1.84,1.84,0,0,0,1.29-.58,1,1,0,1,1,1.42,1.41A3.85,3.85,0,0,1,12,17a4.44,4.44,0,0,1-4.11-4,1,1,0,0,1,0-2A4.44,4.44,0,0,1,12,7a3.84,3.84,0,0,1,2.86,1.33,1,1,0,1,1-1.48,1.34A1.92,1.92,0,0,0,12,9a2.41,2.41,0,0,0-2.07,2Z" style="fill:#231f20"/>
</g>
</svg>